# xmcd
#
# Track frame offsets:
#	150
#	10510
#	19975
#	28102
#	39235
#	49815
#	61260
#	70232
#	82582
#	94662
#	107495
#
# Disc length: 1630 seconds
#
# Revision: 0
# Processed by: cddbd v1.5.1PL2 Copyright (c) Steve Scherf et al.
# Submitted via: dBpowerAMP V4.0
#
DISCID=77065c0b
DTITLE=Johnny Rodriguez - The Best of Johnny Rodriguez, The Millennium Collection
DYEAR=1900
DGENRE=Country
TTITLE0=You Always Come Back (To Hurting Me)
TTITLE1=Ridin' My Thumb To Mexico
TTITLE2=That;s The Way Love Goes
TTITLE3=Dance With Me (Just One More Tiime)
TTITLE4=We're Over
TTITLE5=I Just Can't Get Her Out of My Mind
TTITLE6=(Just Get Up And) Close The Door
TTITLE7=Love Put A Song In My Heart
TTITLE8=I Couldn't Be Me Without You
TTITLE9=I Wonder If I Ever Said Goodbye
TTITLE10=Desparado
EXTD=
EXTT0=
EXTT1=
EXTT2=
EXTT3=
EXTT4=
EXTT5=
EXTT6=
EXTT7=
EXTT8=
EXTT9=
EXTT10=
PLAYORDER=
